<?xml version="1.0" standalone="no"?>
<!DOCTYPE svg PUBLIC "-//W3C//DTD SVG 20010904//EN"
 "http://www.w3.org/TR/2001/REC-SVG-20010904/DTD/svg10.dtd">
<svg version="1.0" xmlns="http://www.w3.org/2000/svg"
 width="640.000000pt" height="640.000000pt" viewBox="0 0 640.000000 640.000000"
 preserveAspectRatio="xMidYMid meet">
<metadata>
Created by potrace 1.10, written by Peter Selinger 2001-2011
</metadata>
<g transform="translate(0.000000,640.000000) scale(0.100000,-0.100000)"
fill="#000000" stroke="none">
<path d="M3843 5200 c-9 -16 -21 -30 -25 -30 -4 0 -14 -13 -22 -28 -21 -41
-85 -116 -106 -124 -9 -3 -20 -16 -23 -27 -6 -25 -8 -25 31 -5 33 16 44 31 16
20 -14 -5 -15 -4 -4 9 7 9 21 13 31 10 11 -4 19 -2 19 4 0 6 -5 11 -10 11 -12
0 21 49 33 50 4 0 7 -7 7 -16 0 -8 5 -12 10 -9 6 3 8 16 5 28 -7 28 59 117 86
117 11 0 19 5 19 10 0 6 -11 10 -24 10 -17 0 -31 -10 -43 -30z"/>
<path d="M3958 5205 c-8 -37 9 -40 27 -5 15 28 14 30 -4 30 -12 0 -20 -9 -23
-25z"/>
<path d="M3485 5190 c-3 -5 -4 -10 0 -10 3 0 -9 -27 -26 -61 -16 -34 -28 -63
-26 -66 3 -2 8 5 12 16 3 12 16 23 28 26 12 2 31 6 42 8 12 3 6 5 -13 6 l-32
1 20 39 c11 22 16 42 11 46 -5 3 -12 1 -16 -5z"/>
<path d="M3886 5161 c-16 -3 -31 -12 -34 -20 -4 -11 4 -13 38 -7 48 8 60 13
60 27 0 10 -19 10 -64 0z"/>
<path d="M3951 5090 c-12 -28 -21 -56 -19 -62 2 -6 14 15 26 47 28 72 22 83
-7 15z"/>
<path d="M3879 5048 c-8 -18 -20 -32 -27 -30 -6 1 -12 -2 -12 -8 0 -24 28 -7
53 32 19 30 21 38 9 38 -5 0 -15 -15 -23 -32z"/>
<path d="M3445 5024 c-11 -2 -42 -9 -70 -14 -27 -6 -60 -12 -73 -15 -43 -8
-62 -16 -62 -27 0 -7 15 -8 43 -3 23 4 59 9 80 12 35 4 37 3 37 -25 0 -28 -3
-30 -52 -36 -29 -3 -65 -9 -80 -12 -23 -5 -27 -3 -30 22 -2 24 -7 29 -28 26
-39 -4 -50 -10 -44 -26 3 -8 12 -12 20 -9 8 3 14 0 14 -6 0 -6 -4 -11 -9 -11
-4 0 -8 -15 -7 -32 2 -48 -18 -50 -24 -3 -8 54 -16 65 -52 65 -25 0 -29 -3
-23 -17 14 -34 18 -100 6 -107 -6 -4 -11 0 -11 11 0 11 -3 14 -8 7 -4 -7 -24
-19 -44 -27 l-37 -16 -4 42 -4 42 -1 -41 c-1 -23 -9 -47 -17 -54 -27 -23 -16
-31 22 -15 21 9 82 27 137 42 55 14 107 29 116 34 44 24 120 51 157 56 24 3
48 12 55 20 10 12 7 13 -15 8 -16 -4 -27 -3 -27 3 0 17 61 26 71 11 14 -22 29
8 29 59 0 44 -5 47 -65 36z m38 -35 c-6 -6 -21 -9 -34 -6 -22 4 -22 4 4 6 15
0 27 6 27 13 0 6 3 8 7 5 4 -4 2 -12 -4 -18z m-238 -105 c6 0 16 -2 23 -2 10
-2 9 -7 -4 -19 -13 -13 -18 -15 -22 -5 -3 10 -7 10 -18 1 -19 -15 -28 -6 -19
20 4 13 11 18 18 14 7 -4 17 -8 22 -9z m-95 -32 c0 -14 -11 -21 -26 -15 -8 3
-11 9 -8 14 7 11 34 12 34 1z"/>
<path d="M3854 4985 c-34 -6 -75 -11 -92 -11 -17 1 -28 -2 -26 -5 2 -4 -19 -9
-47 -11 -28 -3 -55 -12 -60 -19 -7 -11 -9 -11 -9 -1 0 7 -5 10 -11 6 -30 -18
25 -20 121 -3 58 10 120 18 138 19 37 0 72 15 72 30 0 12 -6 11 -86 -5z"/>
<path d="M2975 4970 c-7 -11 16 -11 60 0 28 7 28 8 -12 9 -23 0 -45 -3 -48 -9z"/>
<path d="M2880 4940 c-12 -8 -11 -10 7 -10 12 0 31 -12 42 -26 12 -15 21 -22
21 -17 0 26 -51 65 -70 53z"/>
<path d="M3051 4906 c11 -19 17 -41 13 -48 -5 -10 -4 -10 5 -2 10 9 9 18 -3
42 -9 17 -20 34 -26 37 -5 3 -1 -10 11 -29z"/>
<path d="M3764 4905 c-9 -38 2 -41 21 -6 14 27 14 31 0 31 -8 0 -17 -11 -21
-25z"/>
<path d="M3854 4893 c-17 -32 -25 -38 -55 -39 -81 -3 -85 -4 -69 -14 12 -8 11
-10 -7 -10 -12 0 -24 6 -27 13 -3 9 -9 7 -19 -6 -11 -13 -16 -15 -20 -5 -4 10
-8 9 -18 -3 -15 -18 -89 -36 -89 -22 0 19 68 80 100 90 l35 11 -30 1 c-34 0
-46 -8 -99 -66 -36 -41 -37 -42 -19 -61 10 -11 36 -42 58 -70 22 -29 49 -52
60 -52 20 -1 20 -1 0 -9 -19 -8 -19 -8 2 -19 28 -16 33 -15 33 3 0 9 -11 27
-25 40 -30 27 -29 28 45 45 80 18 98 33 136 117 37 80 42 121 8 56z m-24 -66
c0 -18 -77 -51 -168 -72 -71 -17 -74 -17 -87 1 -8 11 -15 22 -15 25 0 4 29 13
65 20 36 7 65 15 65 19 0 3 16 4 35 2 21 -3 35 0 35 7 0 6 16 11 35 11 22 0
35 -5 35 -13z"/>
<path d="M2832 4907 c-37 -44 -14 -127 36 -127 38 0 52 17 52 62 0 59 -58 102
-88 65z m56 -48 c7 -11 10 -29 7 -40 -7 -19 -8 -20 -26 -3 -21 19 -26 64 -6
64 7 0 18 -9 25 -21z"/>
<path d="M2957 4900 c7 -25 23 -37 23 -17 0 8 -6 20 -14 26 -12 10 -13 8 -9
-9z"/>
<path d="M3682 4900 c-29 -24 -28 -59 1 -38 9 7 19 23 22 36 5 26 6 26 -23 2z"/>
<path d="M3454 4879 c-3 -5 -2 -9 3 -9 4 0 19 -3 32 -7 16 -4 22 -2 18 4 -9
15 -46 23 -53 12z"/>
<path d="M2948 4864 c-5 -4 -8 -22 -8 -39 0 -42 -29 -69 -70 -63 -37 6 -38 2
-2 -16 35 -18 69 -5 83 31 11 30 8 99 -3 87z"/>
<path d="M3315 4841 c-3 -6 11 -13 32 -17 20 -4 57 -16 81 -26 24 -11 46 -17
49 -15 2 3 -12 10 -31 17 -20 6 -35 17 -33 23 1 7 -13 12 -34 13 -20 1 -41 4
-47 8 -6 3 -13 2 -17 -3z"/>
<path d="M3375 4780 c3 -5 16 -10 28 -10 18 0 19 2 7 10 -20 13 -43 13 -35 0z"/>
<path d="M3964 4764 c5 -13 4 -14 -7 -5 -11 8 -23 8 -51 -4 -33 -14 -54 -34
-22 -22 7 3 19 0 25 -6 9 -9 11 -8 6 5 -9 22 26 29 43 8 10 -11 15 -12 18 -2
3 6 10 10 15 6 13 -8 11 10 -3 24 -17 17 -31 15 -24 -4z"/>
<path d="M3305 4760 c-7 -12 2 -12 30 0 19 8 19 9 -2 9 -12 1 -25 -3 -28 -9z"/>
<path d="M3390 4744 c-140 -36 -243 -52 -262 -43 -9 5 -42 10 -73 11 -38 2
-55 6 -55 16 0 8 -7 11 -17 8 -38 -10 -130 -25 -163 -25 -52 0 -224 -8 -230
-10 -11 -5 87 -31 116 -31 17 0 48 7 69 16 21 8 44 13 51 10 8 -3 39 -1 70 5
61 11 175 2 139 -11 -11 -4 -25 -4 -31 1 -6 5 -32 -6 -64 -27 -37 -24 -55 -31
-60 -23 -5 8 -24 9 -59 4 -29 -4 -48 -11 -45 -17 3 -5 12 -7 20 -4 7 3 18 -3
24 -12 11 -16 11 -16 6 1 -7 22 36 24 55 1 8 -10 23 -14 40 -12 16 3 26 1 23
-4 -3 -4 -13 -8 -22 -8 -12 0 -13 -3 -5 -11 9 -9 23 -9 52 -2 41 11 46 9 65
-24 3 -6 -1 -19 -11 -28 -13 -14 -14 -18 -3 -25 8 -5 18 -6 23 -3 6 4 7 -5 3
-22 -5 -19 -3 -31 6 -36 19 -13 28 -11 28 6 0 8 -4 15 -10 15 -17 0 -11 38 8
43 44 13 92 -10 92 -43 0 -24 11 -32 27 -19 10 9 13 7 13 -9 0 -11 -7 -25 -15
-32 -12 -10 -15 -9 -15 6 0 16 -2 16 -16 -4 -8 -12 -20 -22 -26 -22 -6 0 -4 8
5 18 22 25 21 44 -3 70 -22 23 -45 28 -55 12 -4 -6 5 -10 19 -10 33 0 35 -27
4 -40 -14 -5 -17 -9 -7 -9 8 -1 20 4 27 11 6 6 15 8 19 4 5 -4 0 -14 -11 -21
-11 -8 -16 -21 -13 -30 5 -11 0 -15 -21 -15 -34 1 -52 15 -81 65 -18 31 -21
48 -17 78 7 39 6 39 -21 33 -37 -9 -55 -35 -49 -67 3 -15 8 -40 11 -55 l6 -29
-17 30 c-9 16 -32 51 -50 76 -18 26 -29 50 -23 53 5 2 4 3 -3 2 -7 -2 -23 5
-34 16 -21 19 -21 19 -16 -7 4 -25 3 -26 -32 -20 -24 5 -36 3 -36 -4 0 -6 9
-11 19 -11 10 0 22 -8 26 -17 6 -16 8 -15 16 5 13 33 46 28 69 -10 10 -18 24
-38 29 -45 6 -7 18 -29 27 -50 27 -62 31 -68 47 -65 8 1 17 -7 20 -19 5 -19
10 -21 47 -15 60 9 48 -13 -20 -41 -30 -12 -56 -27 -59 -34 -2 -7 1 -9 9 -4 6
4 23 2 36 -5 19 -11 27 -10 46 2 14 9 36 13 55 11 54 -8 55 39 1 60 -27 10
-21 30 16 55 27 19 39 21 54 13 15 -8 23 -7 32 4 7 8 23 15 36 15 13 0 24 5
24 11 0 5 5 7 11 4 7 -5 8 5 4 29 -6 31 -5 35 9 30 11 -4 14 -13 10 -31 -5
-19 -3 -24 7 -21 20 7 14 73 -11 121 -26 49 -21 57 10 15 14 -19 25 -51 28
-80 4 -41 7 -46 19 -36 11 9 17 9 24 -3 7 -10 9 2 6 38 -2 33 -13 65 -28 88
-37 54 -43 41 -8 -20 17 -30 29 -60 26 -67 -3 -9 -7 -6 -13 7 -4 11 -10 22
-13 25 -3 3 -15 22 -25 43 -11 20 -23 37 -28 37 -4 0 -8 7 -8 15 0 8 7 15 16
15 8 0 13 4 9 10 -3 5 -12 7 -21 3 -8 -3 -24 3 -34 12 -11 10 -22 16 -25 13
-3 -3 6 -13 21 -22 20 -14 24 -23 20 -42 -4 -14 0 -37 9 -54 17 -32 20 -54 5
-30 -8 12 -10 12 -10 -5 -1 -18 -2 -17 -11 4 -5 13 -12 21 -15 18 -3 -3 -1
-14 5 -25 6 -12 11 -31 10 -44 0 -16 -6 -8 -17 24 -9 26 -20 50 -24 54 -5 4
-8 12 -8 18 0 6 5 4 10 -4 7 -11 10 -11 10 -2 0 7 5 10 10 7 6 -3 10 -2 10 4
0 15 -19 24 -33 14 -19 -13 -40 -9 -74 15 -17 12 -37 22 -45 22 -7 0 3 -10 22
-22 42 -27 57 -43 75 -85 8 -17 18 -33 23 -35 5 -1 5 -14 1 -28 -7 -25 -7 -25
-8 4 -1 21 -5 27 -16 22 -21 -8 -42 33 -24 46 11 8 10 9 -3 4 -10 -3 -20 0
-24 6 -4 7 -3 8 4 4 7 -4 12 -3 12 3 0 14 -19 24 -52 26 -43 4 -93 55 -54 55
20 0 31 19 19 31 -7 7 -23 3 -45 -11 -35 -20 -37 -20 -72 -3 -42 21 -45 30
-11 39 14 3 25 10 25 15 0 5 5 9 10 9 6 0 10 -7 8 -16 -4 -21 29 -27 36 -8 6
17 36 19 36 2 0 -6 3 -9 6 -6 3 4 1 16 -6 27 -8 17 -8 21 2 19 7 -2 16 -7 19
-12 4 -5 27 -11 50 -13 24 -2 46 -9 47 -14 7 -18 20 -8 15 12 -5 17 -2 19 21
13 16 -4 39 0 61 10 19 9 48 18 65 19 16 1 30 5 30 10 0 15 78 7 91 -10 12
-15 12 -16 -3 -11 -9 4 -55 -1 -102 -11 -47 -10 -87 -16 -90 -14 -2 2 -6 -4
-10 -13 -5 -14 -2 -15 21 -10 16 3 67 11 116 18 92 13 92 13 78 68 l-6 25 -85
-21z m-306 -209 c3 -9 0 -15 -9 -15 -16 0 -27 14 -18 24 10 10 21 7 27 -9z
m150 -47 c7 -30 -3 -20 -24 25 -20 41 -20 41 -1 17 11 -14 22 -33 25 -42z
m-262 1 c-2 -17 -8 -27 -13 -22 -9 9 -1 53 10 53 4 0 6 -14 3 -31z m60 -124
c4 -5 4 -13 2 -17 -8 -13 -24 -9 -24 6 0 8 -7 16 -15 20 -8 3 -15 10 -15 16 0
11 40 -8 52 -25z"/>
<path d="M3136 4735 c25 -19 40 -19 24 0 -7 8 -20 15 -28 15 -13 0 -12 -3 4
-15z"/>
<path d="M3545 4720 c20 -23 29 -21 19 4 -3 9 -13 16 -22 16 -13 0 -12 -3 3
-20z"/>
<path d="M3970 4711 c-31 -17 -45 -32 -42 -43 2 -11 9 -15 20 -12 11 4 13 3 6
-3 -6 -4 -14 -20 -18 -35 -5 -23 -3 -27 11 -22 15 5 15 4 3 -4 -21 -16 -30 -5
-30 39 0 21 -4 39 -10 39 -5 0 -10 -20 -10 -44 0 -24 -3 -51 -6 -60 -11 -28
23 -18 61 19 34 31 36 37 30 73 -6 36 -4 40 18 46 25 6 46 37 24 35 -7 -1 -32
-13 -57 -28z"/>
<path d="M2377 4691 c3 -12 11 -17 19 -14 18 7 13 27 -9 31 -11 2 -14 -2 -10
-17z"/>
<path d="M3500 4692 c0 -11 8 -23 17 -26 15 -6 15 -8 3 -16 -12 -8 -11 -10 6
-10 12 0 25 -7 28 -16 3 -8 2 -12 -4 -9 -5 3 -8 -5 -6 -17 8 -67 20 -107 33
-112 12 -5 11 -10 -2 -36 -9 -17 -20 -28 -25 -25 -5 3 -11 1 -14 -4 -3 -5 3
-11 13 -14 26 -6 55 58 52 119 -2 57 -22 102 -67 149 -28 30 -34 33 -34 17z"/>
<path d="M3809 4677 c-25 -30 -26 -38 -22 -104 5 -68 7 -71 27 -64 16 6 20 15
18 35 -2 15 2 33 8 41 6 8 9 18 6 23 -2 4 -6 29 -7 55 -2 26 -3 47 -3 47 -1 0
-13 -15 -27 -33z"/>
<path d="M2304 4689 c-3 -6 -1 -16 5 -22 8 -8 11 -5 11 11 0 24 -5 28 -16 11z"/>
<path d="M2490 4687 c0 -6 75 -31 124 -42 25 -5 28 -4 18 8 -7 8 -33 17 -60
20 -26 3 -55 9 -64 12 -10 4 -18 5 -18 2z"/>
<path d="M3867 4670 c3 -11 9 -20 13 -20 5 0 6 9 3 20 -3 11 -9 20 -13 20 -5
0 -6 -9 -3 -20z"/>
<path d="M1962 4658 c-71 -16 -42 -19 34 -4 38 8 56 14 39 14 -16 0 -50 -5
-73 -10z"/>
<path d="M3598 4663 c-2 -4 4 -35 14 -68 l17 -60 -5 60 c-6 57 -17 86 -26 68z"/>
<path d="M4004 4635 c-12 -39 -6 -44 20 -16 9 10 14 25 10 35 -9 25 -18 19
-30 -19z"/>
<path d="M2080 4655 c0 -10 123 -75 143 -75 21 1 21 1 3 15 -10 8 -22 12 -27
10 -4 -3 -10 -1 -14 5 -13 21 -105 61 -105 45z"/>
<path d="M3111 4647 c27 -25 97 -50 116 -42 16 8 16 9 -5 12 -12 3 -20 8 -17
13 5 8 -28 19 -79 26 -25 3 -28 1 -15 -9z"/>
<path d="M1805 4615 c-37 -12 -38 -13 -12 -14 16 -1 38 -6 50 -12 16 -9 22 -9
25 0 2 6 8 11 14 11 6 0 8 -6 5 -14 -4 -9 5 -19 23 -26 16 -7 48 -33 70 -59
23 -25 48 -53 56 -62 13 -15 12 -17 -8 -22 -12 -4 -19 -9 -16 -12 3 -4 15 -2
26 4 40 21 60 13 97 -41 40 -61 42 -59 -68 -83 -70 -15 -111 -35 -73 -35 9 0
22 -24 36 -65 12 -36 25 -67 29 -70 5 -2 44 7 87 20 43 14 80 25 80 25 1 0 5
-17 10 -37 4 -21 9 -31 11 -22 11 48 -57 222 -114 289 l-28 33 29 -7 c16 -4
65 -7 108 -7 43 0 78 -4 78 -9 0 -6 5 -10 10 -10 22 0 8 60 -23 108 -19 27
-37 57 -41 67 -4 12 -10 14 -19 8 -6 -6 -53 -20 -104 -33 l-92 -22 -76 47
c-41 26 -78 51 -81 56 -7 12 -41 10 -89 -6z m472 -110 l22 -40 -32 -5 c-18 -3
-48 0 -67 7 -19 7 -48 12 -65 13 -28 0 -28 -1 -12 -17 15 -15 34 -18 107 -17
54 1 90 -2 90 -8 0 -6 -13 -8 -30 -6 -16 3 -30 2 -30 -2 0 -14 -80 -8 -148 12
-62 18 -73 24 -70 41 2 17 18 23 86 37 45 9 85 20 89 24 15 14 38 -1 60 -39z
m-75 -267 l25 -63 -81 -26 c-72 -23 -82 -24 -87 -10 -4 9 -15 39 -26 67 l-20
52 76 19 c42 11 79 21 83 22 3 0 17 -27 30 -61z"/>
<path d="M2074 4599 c26 -17 50 -28 52 -26 5 5 -80 57 -93 57 -4 0 14 -14 41
-31z"/>
<path d="M2642 4623 c-12 -2 -20 -8 -17 -13 3 -4 -17 -11 -43 -16 -72 -12 -74
-13 -112 -23 l-35 -9 30 -1 c17 0 66 8 110 20 l80 20 47 -51 c71 -76 104 -128
126 -200 12 -36 21 -57 21 -48 1 9 -3 28 -9 42 -6 17 -6 26 0 26 19 0 10 31
-19 63 -17 17 -55 62 -86 100 -31 37 -60 67 -66 67 -5 0 -9 5 -9 11 0 6 7 9
15 5 8 -3 15 -1 15 4 0 10 -8 11 -48 3z"/>
<path d="M3368 4618 l-37 -10 24 -25 c13 -14 29 -47 35 -72 7 -25 14 -54 17
-65 4 -13 8 -15 16 -7 6 6 18 11 27 11 8 0 27 6 41 14 45 23 53 4 17 -37 -27
-30 -49 -42 -113 -61 -44 -13 -88 -27 -97 -31 -22 -9 -24 8 -3 25 8 7 12 17 9
22 -4 6 -22 -6 -40 -26 -35 -38 -50 -46 -40 -20 3 8 -10 -2 -29 -22 -21 -22
-32 -41 -27 -46 6 -6 16 -3 25 6 11 12 16 13 20 3 3 -9 7 -9 19 0 8 7 18 10
21 6 4 -3 7 6 7 20 0 20 4 25 15 21 12 -5 13 -10 4 -20 -15 -19 -16 -19 112
21 62 20 122 37 133 39 11 1 22 8 24 14 2 7 -3 10 -12 6 -12 -5 -16 0 -16 19
0 14 4 29 10 32 5 3 15 15 21 27 8 15 8 19 0 13 -8 -5 -10 2 -6 22 5 21 4 24
-4 13 -9 -12 -11 -9 -11 15 0 17 -7 43 -15 59 -17 33 -11 49 8 22 12 -16 13
-16 13 2 0 16 -7 19 -42 18 -53 0 -67 -15 -43 -45 11 -13 19 -18 19 -13 0 6
-4 14 -10 17 -5 3 -10 12 -10 18 0 7 7 3 16 -8 8 -11 12 -25 10 -32 -3 -7 0
-26 5 -43 11 -31 0 -60 -23 -60 -6 0 -4 7 3 17 11 13 11 17 1 20 -6 3 -10 9
-7 13 7 11 -23 85 -30 78 -3 -3 0 -19 6 -36 6 -17 9 -39 6 -49 -3 -13 -5 -11
-6 7 -1 27 -39 96 -48 87 -3 -3 2 -16 11 -29 9 -12 16 -27 16 -32 0 -5 -11 8
-25 28 -31 45 -31 46 -1 46 14 0 28 5 31 10 7 12 3 11 -47 -2z m138 -43 c20
-48 17 -57 -6 -15 -20 36 -24 50 -14 50 3 0 12 -16 20 -35z"/>
<path d="M3727 4623 c-12 -3 -16 -10 -12 -21 3 -9 9 -36 12 -61 5 -36 3 -47
-12 -57 -10 -8 -16 -17 -12 -20 4 -4 14 -1 23 7 13 11 15 25 11 76 -4 38 -2
63 3 63 6 0 10 -19 11 -42 0 -24 4 -52 9 -63 7 -16 9 -14 9 15 1 45 -10 110
-18 109 -3 -1 -14 -3 -24 -6z"/>
<path d="M2750 4610 c0 -5 7 -10 15 -10 8 0 15 5 15 10 0 6 -7 10 -15 10 -8 0
-15 -4 -15 -10z"/>
<path d="M3655 4590 c2 -19 3 -41 4 -47 2 -19 51 -16 51 2 0 9 -9 15 -25 15
-29 0 -32 8 -7 26 15 12 15 13 0 14 -9 0 -18 6 -21 13 -2 6 -3 -4 -2 -23z"/>
<path d="M3867 4613 c-12 -11 -8 -23 8 -23 8 0 15 7 15 15 0 16 -12 20 -23 8z"/>
<path d="M1725 4594 l-30 -14 30 6 c31 6 41 11 34 18 -2 2 -17 -2 -34 -10z"/>
<path d="M2840 4590 c0 -5 7 -10 15 -10 8 0 15 5 15 10 0 6 -7 10 -15 10 -8 0
-15 -4 -15 -10z"/>
<path d="M2320 4570 l-35 -7 43 -2 c23 0 42 4 42 9 0 6 -3 9 -7 9 -5 -1 -24
-5 -43 -9z"/>
<path d="M1590 4554 c-186 -28 -230 -43 -113 -39 44 1 86 6 93 10 7 4 31 2 54
-4 22 -7 52 -15 65 -19 14 -4 24 -11 23 -17 -1 -12 37 -34 60 -35 9 0 19 -4
22 -9 3 -4 -11 -8 -32 -7 -31 1 -36 -2 -34 -18 2 -11 26 -45 53 -75 61 -68
105 -151 86 -163 -22 -14 -69 -9 -84 10 -13 15 -13 15 -4 -5 6 -12 7 -24 2
-27 -5 -3 -16 15 -26 39 -9 25 -21 45 -26 45 -5 0 0 -18 11 -40 11 -21 20 -44
20 -50 0 -19 -19 -10 -26 13 -13 41 -71 123 -123 172 -72 69 -143 111 -226
133 l-71 20 -64 -26 c-35 -14 -59 -27 -52 -30 7 -2 32 4 56 13 94 36 239 -18
354 -133 66 -65 123 -154 109 -168 -3 -4 -29 -9 -57 -12 -27 -2 -50 -8 -50
-13 0 -20 27 -19 103 1 201 56 247 72 241 82 -4 7 -2 8 5 4 9 -6 9 -11 0 -22
-10 -12 -8 -16 11 -21 l22 -6 -23 -13 c-13 -7 -19 -13 -13 -14 16 0 39 -53 25
-58 -6 -2 -11 -11 -11 -19 0 -9 6 -13 15 -10 8 4 17 2 20 -3 4 -6 -1 -10 -9
-10 -9 0 -16 -7 -16 -15 0 -8 5 -15 10 -15 6 0 10 5 10 11 0 8 5 8 15 -1 10
-9 15 -32 15 -75 0 -56 -2 -63 -22 -68 -12 -3 -29 -2 -39 4 -25 13 -59 11 -59
-3 0 -9 -4 -8 -10 2 -15 23 -12 30 10 30 11 0 20 5 20 10 0 6 5 10 11 10 6 0
9 -7 5 -15 -3 -10 1 -15 13 -15 16 0 17 7 13 53 -2 28 -12 84 -22 122 -17 64
-17 71 -2 83 22 17 5 15 -69 -6 -83 -24 -156 -43 -194 -49 -37 -6 -58 -23 -27
-23 18 0 24 -10 38 -57 9 -32 18 -59 19 -61 1 -1 15 3 31 9 16 6 68 22 117 34
112 29 120 10 10 -24 -43 -13 -96 -30 -118 -37 -22 -8 -47 -14 -55 -14 -13 0
-15 -13 -12 -77 2 -43 6 -80 8 -82 2 -2 16 1 31 8 15 6 39 13 52 16 44 8 96
28 103 39 9 13 -11 38 -24 30 -5 -4 -8 1 -6 10 4 24 21 23 33 -3 10 -22 22
-26 43 -13 7 5 35 6 62 2 27 -4 55 -3 61 1 29 18 -8 234 -57 327 -7 14 -11 29
-8 34 3 4 1 8 -5 8 -6 0 -15 10 -22 21 -9 17 -8 24 2 31 11 7 9 8 -5 4 -13 -5
-17 -2 -13 9 6 15 -6 29 -16 18 -3 -3 3 -23 14 -44 11 -22 16 -39 11 -39 -4 0
-18 20 -30 45 -24 50 -26 59 -13 50 5 -3 12 -1 16 5 3 6 -1 13 -9 16 -9 3 -14
9 -11 14 2 4 -7 18 -20 30 -14 13 -25 20 -25 16 0 -4 -14 6 -31 23 -17 17 -51
45 -75 62 -24 16 -44 34 -44 39 0 6 -15 10 -33 10 -18 0 -41 6 -52 13 -11 7
-27 12 -35 11z m272 -169 c8 8 32 -24 35 -48 2 -13 0 -18 -5 -12 -66 74 -91
105 -66 82 17 -15 33 -25 36 -22z m-41 -6 c27 -22 49 -47 49 -54 0 -7 3 -15 8
-17 8 -4 52 -94 52 -108 0 -6 -9 -10 -20 -10 -11 0 -20 6 -20 13 0 21 -73 127
-113 167 -20 19 -37 38 -37 43 0 19 37 3 81 -34z m103 -275 c13 -34 6 -64 -16
-73 -45 -17 -135 -41 -155 -41 -18 0 -43 35 -43 61 0 13 79 48 120 53 17 2 34
6 37 10 12 12 51 6 57 -10z m16 -147 c0 -2 -25 -21 -56 -41 -37 -25 -54 -42
-50 -52 8 -20 -37 -47 -82 -48 -36 -1 -37 0 -38 36 -1 46 4 51 86 73 36 10 68
21 72 24 8 7 68 14 68 8z"/>
<path d="M2390 4542 c0 -17 45 -92 56 -92 3 0 -7 20 -21 45 -15 24 -24 49 -20
55 3 5 1 10 -4 10 -6 0 -11 -8 -11 -18z"/>
<path d="M2516 4538 c4 -7 20 -32 36 -55 l29 -43 -41 0 c-45 0 -53 -22 -11
-28 16 -3 21 0 16 9 -6 8 1 10 24 7 17 -2 31 -2 31 0 0 11 -76 122 -83 122 -5
0 -5 -6 -1 -12z"/>
<path d="M1822 4518 c-33 -12 -50 -24 -45 -29 12 -12 125 30 117 42 -7 12 -10
11 -72 -13z"/>
<path d="M1570 4515 c0 -10 85 -45 109 -44 18 0 5 8 -39 24 -73 28 -70 27 -70
20z"/>
<path d="M3670 4505 c0 -9 5 -15 11 -13 6 2 11 8 11 13 0 5 -5 11 -11 13 -6 2
-11 -4 -11 -13z"/>
<path d="M1370 4500 c-7 -4 5 -10 27 -13 21 -4 67 -21 103 -37 l64 -31 45 17
c25 10 40 19 33 22 -6 2 -25 -3 -41 -11 -27 -14 -33 -13 -81 10 -69 33 -135
52 -150 43z"/>
<path d="M1910 4493 c0 -7 32 -32 43 -33 17 0 5 18 -18 28 -14 6 -25 9 -25 5z"/>
<path d="M3836 4483 c-35 -3 -54 -10 -64 -24 -7 -10 -24 -19 -37 -19 -13 0
-28 -6 -32 -12 -4 -7 -15 -13 -23 -14 -8 -1 -25 -4 -37 -8 -21 -7 -21 -5 -12
29 6 20 8 39 6 42 -3 2 -12 -20 -21 -49 -8 -30 -27 -65 -41 -78 -14 -13 -25
-27 -25 -32 0 -15 85 25 108 51 12 14 20 19 17 11 -3 -10 8 -24 35 -40 50 -31
53 -50 4 -21 -35 21 -37 21 -56 4 -12 -10 -36 -18 -58 -19 -33 0 -104 -39 -90
-49 3 -2 -4 -11 -15 -20 -20 -16 -19 -16 5 -10 65 17 65 17 83 -14 11 -19 26
-31 39 -31 18 0 17 4 -13 39 -19 22 -42 40 -51 40 -26 1 -22 16 7 29 37 17 52
15 29 -4 -19 -15 -19 -16 1 -8 45 17 64 12 245 -63 116 -48 148 -52 174 -24
17 19 17 19 -1 15 -11 -3 -25 2 -33 11 -12 15 -12 19 5 32 19 15 19 15 -6 9
-20 -4 -32 1 -54 24 -21 22 -32 27 -41 19 -7 -6 -18 -8 -25 -4 -6 4 -29 2 -50
-5 -22 -7 -42 -10 -45 -7 -14 13 18 34 86 56 70 23 94 44 43 39 -23 -3 -28 2
-36 32 -8 31 -6 37 18 57 14 13 22 22 18 21 -4 -1 -30 -3 -57 -5z m-2 -39 c3
-9 6 -26 6 -38 0 -12 5 -27 11 -33 8 -8 0 -14 -28 -23 -21 -7 -42 -16 -48 -20
-5 -4 -27 3 -48 17 -38 24 -39 25 -20 45 10 11 32 27 50 34 17 8 34 18 38 24
9 15 32 12 39 -6z m101 -193 c16 -19 36 -41 44 -48 29 -30 -3 -24 -99 17 -99
43 -100 44 -73 55 52 22 94 14 128 -24z"/>
<path d="M2820 4470 c-11 -8 -7 -9 15 -4 37 8 45 14 19 14 -10 0 -26 -5 -34
-10z"/>
<path d="M2707 4462 c-12 -2 -16 -9 -13 -19 3 -8 6 -17 6 -19 0 -2 9 -4 20 -4
13 0 20 7 20 19 0 23 -8 29 -33 23z"/>
<path d="M3899 4441 l-26 -16 23 -17 c22 -17 23 -17 29 13 9 38 6 40 -26 20z"/>
<path d="M2444 4422 c-18 -13 -5 -72 16 -72 10 0 11 68 1 74 -4 3 -11 2 -17
-2z"/>
<path d="M1108 4388 c-26 -16 -58 -31 -71 -32 -14 0 -23 -4 -21 -8 2 -3 -19
-27 -48 -52 -29 -25 -50 -48 -47 -51 3 -2 21 -7 40 -10 32 -5 33 -5 9 7 -35
17 -36 18 -20 28 9 5 17 5 21 -1 3 -6 19 -9 35 -7 l29 4 -32 9 -33 10 53 29
c32 19 47 23 38 13 -21 -26 2 -20 35 8 22 20 24 24 9 19 -16 -5 -17 -4 -5 4 8
6 17 9 20 7 4 -2 24 2 46 10 21 8 50 14 63 15 20 0 21 -2 11 -15 -7 -8 -18
-15 -24 -15 -17 0 -119 -61 -112 -67 3 -3 38 13 77 36 l73 42 40 -17 c179 -78
310 -266 346 -495 18 -115 -13 -276 -69 -359 -36 -54 -63 -69 -126 -70 -32 0
-62 -7 -83 -20 -18 -11 -37 -20 -42 -20 -17 0 0 27 26 40 13 7 24 20 24 27 0
23 -32 10 -49 -20 -17 -30 -90 -79 -105 -70 -5 4 -6 1 -3 -4 6 -9 -56 -20
-166 -29 -15 -1 -31 -5 -35 -9 -4 -4 34 -4 83 0 50 4 133 8 185 9 58 1 115 8
145 18 28 9 82 22 120 28 67 12 105 22 189 53 40 15 70 47 43 47 -9 0 -2 14
19 37 35 38 42 53 23 53 -5 0 -7 5 -4 10 8 14 -46 2 -60 -13 -7 -7 -4 -8 8 -4
10 4 17 1 17 -7 0 -19 -51 -82 -82 -100 -49 -29 -47 -16 4 35 54 54 57 66 14
49 -15 -5 -37 -10 -50 -10 -15 0 -32 -14 -54 -45 -31 -44 -105 -105 -126 -105
-6 1 6 15 27 32 21 17 54 54 73 82 19 28 34 46 34 41 1 -13 29 37 29 50 0 6
-7 -1 -15 -15 l-15 -25 6 25 c30 113 37 162 32 245 -9 164 -81 330 -189 436
-33 33 -56 59 -51 59 11 0 112 -105 141 -147 12 -18 38 -67 57 -110 19 -43 35
-70 35 -59 0 15 3 16 15 6 17 -14 31 -7 20 10 -4 7 -16 10 -26 7 -11 -3 -19
-1 -19 4 0 5 5 9 11 9 5 0 7 5 4 10 -4 6 -10 8 -14 6 -4 -3 -20 20 -34 50 -15
31 -45 80 -67 109 -47 63 -163 160 -204 171 -21 5 -25 9 -14 16 9 7 7 8 -8 3
-12 -3 -34 -1 -50 6 -61 23 -106 20 -156 -13z m282 -58 c14 -11 21 -20 17 -20
-5 0 -20 9 -34 20 -14 11 -22 20 -17 20 5 0 20 -9 34 -20z m275 -850 c-40 -41
-64 -45 -43 -7 15 29 38 46 63 47 16 0 12 -7 -20 -40z m-217 -71 c9 0 -8 -9
-38 -20 -106 -39 -115 -37 -43 7 21 13 44 21 51 19 8 -3 21 -5 30 -6z"/>
<path d="M2360 4412 c0 -15 28 -47 35 -40 11 11 -5 48 -21 48 -8 0 -14 -4 -14
-8z"/>
<path d="M2636 4385 c4 -8 10 -12 15 -9 14 8 10 24 -6 24 -9 0 -12 -6 -9 -15z"/>
<path d="M2515 4380 c3 -5 19 -10 36 -10 16 0 29 5 29 10 0 6 -16 10 -36 10
-21 0 -33 -4 -29 -10z"/>
<path d="M2690 4343 c-8 -3 -26 -10 -39 -15 -13 -5 -22 -11 -19 -13 3 -3 23 1
46 9 31 11 42 12 46 3 2 -7 5 -4 5 6 1 17 -11 20 -39 10z"/>
<path d="M3490 4321 c-22 -4 -36 -12 -38 -24 -3 -15 0 -16 25 -5 23 10 68 41
53 37 -3 -1 -21 -4 -40 -8z"/>
<path d="M2898 4307 c-41 -10 -50 -26 -18 -34 11 -3 20 -6 20 -7 0 -1 4 -16 9
-34 9 -30 7 -34 -15 -44 -24 -11 -35 -43 -11 -35 6 2 17 -3 23 -11 28 -38 49
36 36 123 l-7 51 -37 -9z"/>
<path d="M1755 4303 c-69 -14 -66 -12 -54 -35 10 -19 12 -20 21 -4 5 9 24 23
41 30 32 14 29 17 -8 9z"/>
<path d="M2573 4299 c-18 -5 -33 -11 -33 -12 0 -1 9 -48 20 -105 11 -57 17
-121 14 -143 -3 -21 -4 -39 -1 -39 2 0 18 5 36 11 36 13 38 26 17 137 -13 68
-12 76 7 73 5 -1 6 6 3 16 -3 10 -8 30 -12 46 -3 15 -9 27 -13 26 -3 0 -21 -5
-38 -10z m30 -50 c3 -13 1 -19 -6 -16 -15 5 -22 37 -9 37 5 0 12 -9 15 -21z"/>
<path d="M2695 4280 c-11 -12 -20 -27 -21 -34 -3 -21 41 -70 55 -62 9 6 9 11
1 21 -7 8 -9 19 -5 25 3 5 -1 10 -10 10 -22 0 -14 24 9 28 22 5 45 -26 38 -51
-3 -10 1 -23 9 -27 11 -7 11 -13 0 -33 -7 -14 -10 -30 -7 -36 4 -6 0 -14 -9
-17 -9 -4 -20 -17 -25 -29 -5 -14 -20 -25 -41 -29 -18 -3 -29 -9 -26 -13 12
-11 98 29 113 53 20 30 20 130 0 179 -18 41 -52 47 -81 15z"/>
<path d="M3331 4266 c-36 -11 -66 -26 -69 -33 -3 -10 120 29 137 44 15 12 -13
8 -68 -11z"/>
<path d="M1090 4266 c19 -7 37 -12 39 -10 8 7 -6 14 -40 19 l-34 5 35 -14z"/>
<path d="M1345 4255 c-16 -7 -23 -14 -15 -14 8 0 26 6 40 14 32 18 14 18 -25
0z"/>
<path d="M1588 4253 c-21 -8 -38 -19 -38 -24 0 -5 2 -9 4 -9 8 0 76 42 76 46
0 5 1 6 -42 -13z"/>
<path d="M2852 4240 c0 -19 2 -27 5 -17 2 9 2 25 0 35 -3 9 -5 1 -5 -18z"/>
<path d="M1017 4233 c-35 -25 -41 -26 -70 -14 -52 21 -80 25 -75 11 2 -7 26
-21 52 -31 l49 -18 41 28 c60 40 64 42 70 32 4 -5 -36 -39 -88 -75 -89 -62
-117 -86 -100 -86 4 0 31 18 61 40 l53 41 36 -27 c19 -15 49 -43 65 -63 17
-21 29 -29 29 -20 0 15 -56 74 -98 101 l-23 16 36 22 36 22 40 -28 c58 -40
124 -118 162 -191 17 -35 35 -63 40 -63 4 0 -8 31 -27 68 -40 79 -113 164
-175 204 -25 15 -41 28 -37 28 5 0 3 7 -4 15 -17 20 -28 18 -73 -12z"/>
<path d="M2250 4243 c1 -10 7 -36 15 -58 8 -22 15 -50 15 -62 0 -13 5 -23 11
-23 6 0 9 6 7 13 -3 6 -11 42 -18 80 -8 37 -17 67 -22 67 -4 0 -8 -8 -8 -17z"/>
<path d="M2285 4235 c0 -14 3 -25 8 -25 4 0 7 -20 7 -45 0 -25 5 -45 10 -45
13 0 11 97 -2 123 -13 25 -23 21 -23 -8z"/>
<path d="M2870 4220 c0 -11 4 -20 9 -20 5 0 11 9 14 20 3 13 0 20 -9 20 -8 0
-14 -9 -14 -20z"/>
<path d="M3132 4224 c-7 -8 -17 -12 -23 -9 -5 4 -9 -3 -9 -14 0 -12 5 -21 10
-21 6 0 10 5 10 10 0 6 5 10 11 10 6 0 9 -6 6 -14 -3 -8 -3 -17 0 -20 9 -9 34
15 27 25 -3 5 2 12 11 16 10 3 21 0 25 -7 7 -11 11 -11 24 -1 26 22 18 31 -19
25 -22 -3 -35 -1 -35 5 0 16 -23 13 -38 -5z"/>
<path d="M1390 4220 c-13 -9 -13 -10 0 -10 8 0 22 5 30 10 13 9 13 10 0 10 -8
0 -22 -5 -30 -10z"/>
<path d="M2440 4216 c0 -8 6 -18 13 -22 6 -4 9 -4 5 1 -4 4 -3 14 3 22 9 10 8
13 -5 13 -9 0 -16 -6 -16 -14z"/>
<path d="M2505 4200 c-10 -11 -20 -18 -23 -16 -2 3 -16 -9 -30 -25 -14 -17
-36 -35 -48 -40 -16 -5 -22 -14 -18 -24 7 -18 24 -20 24 -2 0 8 29 37 65 66
36 29 65 55 65 57 0 11 -19 2 -35 -16z"/>
<path d="M3411 4195 c-18 -18 -226 -102 -348 -140 -8 -3 -13 5 -13 20 0 16 6
25 15 25 8 0 15 6 15 13 0 6 5 4 11 -6 9 -15 12 -15 25 -3 23 24 18 56 -10 56
-13 0 -26 -5 -28 -11 -2 -7 -16 -13 -31 -15 -15 -1 -37 -6 -48 -9 -19 -6 -21
-4 -16 16 4 13 7 30 7 37 0 6 8 12 18 13 9 0 4 5 -12 10 -17 4 -31 7 -32 6 -1
-1 -3 -29 -5 -62 -1 -33 -7 -66 -12 -73 -16 -21 -4 -20 43 5 45 23 45 23 10
17 -41 -7 -36 3 7 15 25 7 29 6 31 -13 1 -22 -3 -24 -88 -60 -19 -8 -52 -28
-74 -45 -21 -17 -42 -31 -47 -31 -5 0 7 29 26 65 28 54 31 65 17 65 -12 0 -25
-21 -41 -63 -25 -66 -64 -117 -91 -117 -9 0 -33 -9 -55 -20 -21 -11 -40 -18
-43 -16 -7 8 32 58 52 67 17 8 15 8 -9 4 -35 -7 -35 -7 -229 -91 -108 -46
-152 -60 -157 -52 -5 8 -11 4 -18 -14 -6 -17 -20 -28 -40 -33 -17 -4 -33 -11
-36 -16 -12 -18 -26 -9 -20 12 5 16 3 20 -6 17 -8 -3 -14 -15 -13 -26 0 -16
-9 -25 -35 -33 -20 -7 -58 -22 -86 -35 -72 -33 -166 -64 -176 -58 -5 3 -9 -2
-9 -10 0 -9 -4 -16 -9 -16 -5 0 -8 -11 -7 -25 1 -23 2 -24 14 -8 6 9 12 20 12
24 0 7 122 59 127 55 2 -1 -7 -31 -18 -65 l-21 -62 -67 1 c-87 2 -85 2 -72
-14 15 -18 -18 -58 -68 -85 -19 -10 -37 -23 -39 -29 -4 -14 39 -16 54 -3 5 4
45 23 89 41 156 64 272 128 351 196 108 92 194 145 289 179 44 15 94 35 111
45 16 9 53 23 81 29 29 7 72 26 98 42 25 16 52 29 60 29 8 0 31 11 51 25 39
27 70 33 58 13 -4 -7 4 -3 18 10 36 33 93 38 141 13 l38 -19 26 24 c22 20 32
23 67 18 50 -8 65 -19 83 -61 19 -46 16 -65 -12 -107 -20 -29 -21 -36 -9 -36
21 0 113 52 118 67 10 24 -46 6 -62 -20 -9 -15 -22 -29 -29 -31 -9 -4 -8 2 3
19 12 19 15 39 12 77 -4 42 -11 57 -37 80 -36 32 -93 38 -125 13 -11 -8 -28
-15 -37 -15 -24 0 -69 21 -69 32 0 5 9 4 20 -2 15 -8 25 -7 42 4 13 8 57 18
98 22 41 3 83 11 94 16 12 7 33 6 61 -2 36 -10 48 -10 72 3 15 8 66 29 112 46
64 24 87 29 97 20 8 -6 14 -17 14 -23 0 -6 -5 -3 -11 7 -18 31 -28 8 -13 -30
10 -23 13 -49 9 -70 -6 -32 -5 -34 15 -23 47 25 49 104 3 140 -31 24 -107 27
-159 5 l-36 -15 -16 40 c-19 45 -37 49 -71 15z m49 -30 c0 -9 7 -18 15 -21 21
-8 19 -26 -2 -22 -10 2 -17 -1 -16 -7 1 -6 -26 -10 -65 -10 -37 0 -79 -3 -94
-8 -17 -4 -28 -3 -28 3 0 5 24 16 53 25 28 8 66 24 82 35 36 24 55 25 55 5z
m-870 -282 c0 -5 -4 -14 -9 -22 -8 -13 -24 -20 -131 -57 -25 -9 -66 -31 -92
-50 -31 -22 -48 -29 -48 -20 0 29 39 56 150 105 119 52 130 56 130 44z m-298
-120 c-6 -2 -10 -8 -7 -13 11 -17 -130 -147 -205 -188 -92 -51 -106 -53 -85
-12 8 16 15 39 15 52 0 32 8 39 73 71 l58 27 -20 -27 c-22 -32 -36 -73 -24
-73 16 0 32 16 42 43 6 15 17 27 25 27 7 0 13 8 12 18 -1 11 15 25 43 39 25
13 49 27 55 33 5 5 15 10 21 9 5 0 4 -3 -3 -6z m-402 -284 c0 -5 -9 -9 -21 -9
-11 0 -17 -4 -14 -10 3 -5 2 -10 -4 -10 -13 0 -24 18 -17 29 3 5 17 9 31 9 14
0 25 -4 25 -9z"/>
<path d="M1343 4190 c-30 -12 -29 -18 1 -13 18 4 32 -6 66 -45 38 -45 45 -50
67 -41 38 14 62 10 28 -6 -34 -15 -28 -20 9 -6 21 9 25 20 17 49 -1 1 -18 -5
-38 -13 -36 -15 -37 -15 -60 12 -13 15 -31 38 -39 51 -18 24 -19 25 -51 12z"/>
<path d="M1273 4184 c-7 -3 -9 -12 -6 -20 3 -8 -1 -14 -11 -14 -11 0 -2 -20
33 -75 103 -157 136 -366 86 -532 -17 -57 -17 -56 -6 -49 19 12 43 117 49 216
l7 105 35 13 35 13 -32 -5 c-37 -6 -46 3 -62 64 -16 60 -16 59 -35 104 -10 22
-38 60 -62 85 l-45 45 26 15 c33 21 24 49 -12 35z"/>
<path d="M2351 4158 c-1 -22 4 -28 19 -28 11 0 20 4 20 10 0 5 -6 7 -14 4 -9
-4 -16 3 -19 18 -4 21 -4 20 -6 -4z"/>
<path d="M2653 4173 c-18 -7 -16 -23 2 -23 8 0 15 7 15 15 0 8 -1 15 -2 14 -2
0 -9 -3 -15 -6z"/>
<path d="M2692 4139 c2 -31 7 -44 18 -44 21 0 13 76 -9 83 -9 3 -11 -9 -9 -39z"/>
<path d="M3155 4129 c-4 -6 -5 -13 -2 -16 7 -7 27 6 27 18 0 12 -17 12 -25 -2z"/>
<path d="M670 4115 c-11 -13 -8 -14 19 -10 17 3 45 7 61 10 37 6 38 -8 3 -41
-29 -26 -12 -23 19 4 17 14 31 13 72 -4 15 -5 17 -4 11 6 -6 9 -4 11 5 5 10
-6 4 -15 -21 -36 -18 -15 -38 -25 -43 -22 -5 4 -6 1 -2 -5 10 -17 -7 -15 -30
3 -19 15 -19 15 1 9 15 -4 16 -3 7 4 -23 16 -154 14 -195 -3 -20 -8 -37 -19
-37 -24 0 -5 23 0 50 12 45 19 56 20 107 9 34 -7 71 -23 93 -40 46 -37 111
-123 108 -142 -2 -8 -22 -24 -46 -34 -49 -23 -54 -36 -13 -36 20 0 30 6 34 20
3 11 13 20 24 20 17 -1 17 -1 0 -14 -19 -14 -7 -33 13 -21 6 3 11 -1 11 -9 1
-9 2 -22 3 -28 1 -7 -7 -18 -19 -25 -17 -11 -18 -12 -2 -13 9 0 17 -6 17 -14
0 -7 7 -19 15 -26 10 -9 12 -17 6 -23 -5 -5 -7 -16 -4 -23 3 -8 0 -14 -5 -14
-6 0 -9 -13 -7 -30 2 -16 0 -32 -5 -35 -4 -3 -7 -13 -5 -23 1 -9 -2 -26 -8
-37 -6 -11 -12 -26 -13 -34 -3 -17 -74 -91 -88 -91 -5 0 -2 8 6 18 9 9 13 24
11 32 -4 12 -3 13 5 1 8 -11 12 -10 21 6 19 36 -30 26 -54 -11 -11 -16 -38
-41 -60 -54 l-40 -23 63 4 c75 4 104 23 147 93 29 48 31 49 78 50 47 0 48 0
42 -25 -9 -37 -52 -90 -92 -113 -19 -11 -32 -23 -29 -25 7 -8 87 41 110 66 17
19 30 21 137 21 78 0 120 4 125 11 5 9 -26 11 -123 7 l-130 -6 24 67 c22 60
24 77 20 187 l-4 121 31 -1 c17 -1 34 -4 37 -8 3 -5 40 4 82 18 66 22 80 24
94 12 15 -12 15 -11 4 10 -9 17 -18 21 -34 17 -19 -5 -19 -4 3 9 60 37 75 8
75 -144 0 -88 -14 -155 -47 -225 -13 -28 -14 -34 -3 -21 8 11 25 45 37 75 41
106 32 353 -13 343 -7 -2 -26 -4 -41 -4 -15 -1 -25 -5 -22 -10 3 -5 0 -8 -7
-7 -8 2 -29 -5 -48 -15 -26 -14 -115 -45 -129 -46 -2 0 -1 4 3 9 9 15 216 93
231 87 16 -6 28 10 14 19 -6 4 -64 -14 -128 -39 -64 -25 -123 -47 -130 -48 -7
-2 -22 21 -36 53 -40 98 -120 194 -191 231 -51 27 -157 34 -175 13z m253 -114
c25 -26 58 -73 72 -102 15 -30 31 -56 35 -59 12 -9 31 -50 23 -50 -5 0 -4 -37
1 -83 5 -46 6 -109 2 -140 -7 -54 -10 -58 -37 -64 -16 -3 -32 -10 -35 -14 -3
-5 -14 -9 -26 -9 -17 0 -19 4 -13 23 4 12 9 58 12 102 9 137 -35 270 -118 360
l-39 43 32 21 c18 11 36 21 39 21 4 0 27 -22 52 -49z"/>
<path d="M998 3822 c-20 -2 -28 -9 -28 -23 0 -22 18 -25 44 -6 25 19 17 33
-16 29z"/>
<path d="M2870 4114 c0 -14 3 -14 15 -4 8 7 15 14 15 16 0 2 -7 4 -15 4 -8 0
-15 -7 -15 -16z"/>
<path d="M2907 4103 c-4 -3 -7 -15 -7 -25 0 -22 15 -16 30 13 8 14 7 19 -3 19
-8 0 -17 -3 -20 -7z"/>
<path d="M3605 4092 c-10 -11 -22 -19 -27 -16 -4 3 -8 0 -8 -7 0 -8 -4 -8 -15
1 -19 16 -19 10 0 -26 27 -53 18 -86 -30 -104 l-30 -11 23 23 c24 27 28 54 11
92 -10 21 -15 23 -39 14 -28 -9 -28 -10 -14 -45 15 -36 16 -84 1 -83 -10 1
-37 -33 -32 -39 2 -2 50 20 107 48 96 47 104 52 102 78 -1 15 -3 35 -3 44 -1
8 -7 24 -15 34 -13 18 -14 18 -31 -3z m35 -87 c0 -2 -15 -12 -32 -20 l-33 -16
24 21 c22 19 41 26 41 15z"/>
<path d="M2268 4083 c-15 -4 -17 -14 -12 -76 6 -71 -5 -127 -25 -127 -17 0
-64 -20 -59 -25 2 -3 26 2 51 11 39 13 47 20 47 40 0 16 8 28 25 36 33 15 36
59 4 51 -16 -4 -20 -2 -17 8 3 8 12 13 22 11 11 -2 16 4 16 20 -1 21 -22 60
-31 57 -2 -1 -12 -3 -21 -6z"/>
<path d="M2456 4074 c-53 -17 -58 -31 -4 -16 18 5 48 8 66 6 17 -1 32 2 32 7
0 5 -4 9 -9 9 -5 0 -15 2 -23 4 -7 3 -35 -2 -62 -10z"/>
<path d="M1505 4060 c-13 -5 -14 -9 -5 -9 8 0 24 4 35 9 13 5 14 9 5 9 -8 0
-24 -4 -35 -9z"/>
<path d="M2357 4063 c-4 -3 -7 -22 -7 -40 0 -27 4 -34 17 -31 9 2 20 14 23 28
9 34 -14 63 -33 43z m23 -33 c0 -11 -4 -20 -8 -20 -4 0 -8 9 -9 20 -1 11 2 20
8 20 5 0 9 -9 9 -20z"/>
<path d="M3412 4025 c14 -22 28 -47 31 -55 4 -8 5 -1 1 15 -3 17 -17 41 -31
55 l-25 25 24 -40z"/>
<path d="M1528 4043 c-10 -2 -18 -8 -18 -13 0 -5 14 -4 30 1 45 16 36 25 -12
12z"/>
<path d="M2220 4034 c0 -5 -22 -17 -50 -27 l-50 -18 0 -69 c0 -40 4 -70 10
-70 6 0 10 7 10 16 0 9 8 23 18 30 10 8 12 13 5 14 -9 0 -13 15 -12 43 1 36 2
38 9 17 l8 -25 1 28 c1 15 7 27 14 27 19 0 53 27 44 36 -4 4 -7 3 -7 -2z"/>
<path d="M1541 4019 c-13 -5 -21 -12 -18 -15 3 -3 18 1 34 10 31 17 21 20 -16
5z"/>
<path d="M1128 3990 c-20 -11 -40 -24 -43 -30 -9 -15 1 -12 37 10 18 11 43 20
56 20 13 0 20 4 17 10 -9 14 -25 12 -67 -10z"/>
<path d="M1540 3990 c-13 -9 -13 -10 0 -9 8 0 24 4 35 9 20 9 20 9 0 9 -11 0
-27 -4 -35 -9z"/>
<path d="M2083 3986 c3 -7 0 -20 -6 -27 -7 -7 -2 -5 11 5 26 22 28 36 6 36
-10 0 -14 -6 -11 -14z"/>
<path d="M3177 3982 c-39 -43 -1 -138 52 -129 14 2 35 7 46 11 20 8 20 7 1 -8
-11 -9 -34 -16 -50 -17 l-31 0 32 -16 c31 -15 34 -15 53 2 31 28 28 118 -5
150 -29 30 -75 33 -98 7z m88 -23 c4 -6 8 -24 9 -40 2 -23 -2 -29 -19 -29 -29
0 -45 19 -45 52 0 23 4 28 24 28 14 0 28 -5 31 -11z"/>
<path d="M484 3969 c-39 -29 -73 -80 -80 -122 l-6 -32 26 41 c50 80 108 92
188 38 29 -20 40 -23 56 -15 15 8 24 5 42 -14 13 -14 18 -25 12 -25 -9 0 -9
-5 0 -19 7 -11 15 -18 19 -15 4 2 11 -1 15 -7 4 -7 3 -9 -4 -5 -5 3 -12 0 -15
-6 -5 -15 -5 -16 -42 42 -24 37 -30 41 -33 25 -10 -58 -51 -110 -53 -67 0 10
-3 12 -6 5 -2 -7 -11 -13 -19 -13 -8 0 -14 -5 -14 -10 0 -7 -6 -7 -19 -1 -10
6 -21 7 -25 4 -10 -11 -7 -73 5 -73 5 0 7 5 4 10 -3 6 2 13 11 17 16 6 16 7
-2 13 -13 5 -3 9 35 15 29 4 62 14 72 23 21 18 59 26 59 12 0 -6 -4 -10 -8
-10 -16 0 -42 -59 -42 -94 0 -20 13 -63 29 -96 28 -60 30 -75 5 -42 -13 16
-14 16 -7 -3 3 -11 10 -26 16 -32 6 -9 6 -18 -2 -26 -6 -8 -8 -17 -4 -21 7 -7
-18 -28 -71 -59 -31 -18 -27 -18 52 10 24 8 46 13 49 9 23 -23 -96 -68 -128
-48 -10 7 -29 12 -42 12 -13 0 -34 11 -47 25 l-24 26 22 6 c23 6 29 18 12 28
-5 3 -10 14 -10 24 0 9 -8 35 -19 57 -10 21 -21 56 -25 77 -4 21 -11 35 -17
32 -5 -4 -9 6 -9 22 0 22 2 25 10 13 8 -13 10 -12 10 4 0 13 -5 17 -20 13 -13
-3 -20 0 -20 10 0 8 -4 11 -10 8 -5 -3 -10 -17 -10 -31 0 -16 -4 -23 -11 -18
-7 4 -9 2 -6 -7 3 -8 11 -33 18 -57 8 -30 14 -40 20 -30 12 18 11 31 -1 23 -6
-4 -10 6 -10 24 0 44 18 47 25 4 4 -21 20 -66 36 -100 16 -35 29 -69 29 -77 0
-31 -37 -7 -67 44 -37 62 -43 60 -13 -3 11 -24 38 -61 60 -82 22 -22 40 -42
40 -46 0 -4 -15 -10 -32 -13 -18 -3 -55 -17 -83 -31 -45 -22 -46 -24 -16 -19
18 3 58 17 88 30 54 24 56 24 99 8 26 -10 57 -14 78 -11 43 7 102 45 118 77 7
14 16 27 19 30 13 10 39 115 39 157 0 41 -1 44 -22 37 -49 -16 -62 -11 -69 28
-3 21 -1 42 4 47 13 13 5 22 -10 13 -6 -4 -14 -23 -18 -42 -9 -48 17 -79 63
-74 26 3 32 0 32 -16 0 -13 -5 -18 -15 -14 -8 4 -15 1 -15 -6 0 -7 -8 -9 -22
-4 -20 6 -21 5 -9 -10 7 -9 19 -16 27 -16 10 0 10 -6 -2 -35 -18 -44 -18 -58
1 -25 16 29 20 19 4 -11 -5 -11 -14 -17 -18 -14 -5 3 -12 -2 -15 -11 -4 -9 -9
-14 -12 -11 -3 3 2 19 11 36 14 27 14 31 0 31 -18 0 -19 12 -4 27 8 8 3 22
-20 50 -42 52 -52 122 -22 152 13 13 34 21 56 21 28 0 37 -5 50 -30 9 -17 13
-40 10 -50 -4 -12 -2 -20 4 -20 15 0 14 52 -2 75 -26 39 -58 100 -43 81 13
-16 16 -17 16 -4 0 8 -11 27 -24 41 -13 14 -22 28 -20 31 2 3 1 4 -2 1 -4 -2
-21 6 -38 19 -45 34 -92 56 -139 66 -38 7 -39 8 -11 9 17 1 58 -12 90 -29 71
-36 83 -32 18 6 -65 38 -138 43 -180 13z"/>
<path d="M2373 3978 c-13 -6 -23 -15 -23 -20 0 -5 -4 -6 -10 -3 -5 3 -10 -1
-10 -9 0 -12 5 -14 26 -6 33 13 47 13 39 0 -3 -5 -1 -10 4 -10 6 0 11 14 11
30 0 33 -4 34 -37 18z"/>
<path d="M1561 3969 c-13 -5 -21 -12 -18 -15 3 -3 18 1 34 10 31 17 21 20 -16
5z"/>
<path d="M1148 3949 c-21 -11 -38 -22 -38 -24 0 -3 18 4 40 15 22 11 40 23 40
25 0 7 0 7 -42 -16z"/>
<path d="M782 3938 c3 -7 13 -15 22 -16 12 -3 17 1 14 10 -3 7 -13 15 -22 16
-12 3 -17 -1 -14 -10z"/>
<path d="M1568 3943 c-10 -2 -18 -9 -18 -14 0 -12 10 -11 40 6 24 14 14 18
-22 8z"/>
<path d="M1670 3935 c-6 -8 -10 -22 -7 -32 4 -15 5 -14 6 4 0 12 9 23 19 25
11 2 13 6 6 11 -7 4 -17 0 -24 -8z"/>
<path d="M1583 3913 c-13 -2 -23 -8 -23 -13 0 -5 14 -4 30 1 27 10 42 21 23
18 -5 -1 -18 -4 -30 -6z"/>
<path d="M516 3849 c-30 -61 -30 -59 -13 -59 11 0 50 100 42 109 -2 2 -15 -21
-29 -50z"/>
<path d="M800 3881 c0 -5 11 -11 25 -13 20 -4 23 -3 14 8 -13 16 -39 19 -39 5z"/>
<path d="M1578 3883 c-10 -2 -18 -9 -18 -14 0 -11 39 -2 55 12 9 9 -6 10 -37
2z"/>
<path d="M1674 3780 c0 -52 1 -74 3 -47 2 26 2 68 0 95 -2 26 -3 4 -3 -48z"/>
<path d="M2090 3855 c-10 -12 -10 -15 4 -15 9 0 16 7 16 15 0 8 -2 15 -4 15
-2 0 -9 -7 -16 -15z"/>
<path d="M455 3830 c-9 -14 -12 -100 -4 -100 6 0 19 102 14 108 -2 2 -6 -2
-10 -8z"/>
<path d="M1945 3826 c-32 -10 -36 -14 -20 -18 18 -5 18 -6 -2 -7 -13 -1 -23
-7 -23 -16 0 -8 3 -15 8 -15 12 1 42 27 42 37 0 5 12 14 28 20 37 15 16 14
-33 -1z"/>
<path d="M2015 3820 c-4 -6 -10 -8 -14 -5 -5 2 -16 -4 -26 -15 -10 -11 -16
-20 -14 -21 2 0 12 -2 21 -4 10 -2 16 2 15 7 -1 6 4 13 11 15 8 3 10 -1 5 -13
-4 -12 -2 -15 8 -12 16 5 25 58 10 58 -5 0 -13 -5 -16 -10z"/>
<path d="M480 3758 c0 -12 3 -18 7 -14 11 10 12 36 2 36 -5 0 -9 -10 -9 -22z"/>
<path d="M1794 3745 c-18 -15 -18 -15 5 -13 14 2 26 9 29 16 5 17 -10 15 -34
-3z"/>
<path d="M570 3711 c0 -17 2 -31 4 -31 8 0 13 51 5 56 -5 3 -9 -9 -9 -25z"/>
<path d="M770 3710 c0 -32 1 -33 24 -24 12 5 13 10 4 30 -15 33 -28 30 -28 -6z"/>
<path d="M1741 3733 c0 -7 -12 -15 -25 -19 -19 -4 -26 -16 -36 -62 -7 -31 -14
-67 -17 -79 -4 -19 -1 -23 20 -23 15 0 30 8 35 18 14 28 35 137 29 158 -2 10
-5 13 -6 7z"/>
<path d="M1213 3722 c-13 -2 -23 -10 -23 -18 0 -10 7 -13 25 -9 14 3 37 7 51
10 51 11 3 26 -53 17z"/>
<path d="M1601 3719 c-13 -5 -22 -11 -20 -14 8 -7 49 7 49 16 0 5 -1 9 -2 8
-2 0 -14 -5 -27 -10z"/>
<path d="M475 3668 c9 -51 23 -91 25 -68 0 8 10 -2 20 -24 11 -21 17 -42 14
-47 -3 -5 5 -23 18 -41 25 -37 38 -48 53 -48 6 1 1 7 -9 15 -11 8 -18 16 -15
17 49 30 67 40 82 45 19 6 21 12 7 33 -7 11 -10 11 -10 2 0 -7 -4 -10 -10 -7
-5 3 -7 0 -4 -8 3 -8 -6 -19 -23 -27 -15 -8 -31 -16 -35 -18 -3 -2 -20 26 -37
62 -16 35 -35 67 -41 71 -7 5 -9 21 -5 46 6 35 5 39 -15 39 -20 0 -21 -3 -15
-42z"/>
<path d="M1590 3690 c-21 -7 -21 -8 -5 -9 11 0 27 4 35 9 18 11 5 11 -30 0z"/>
<path d="M533 3650 c1 -11 8 -20 17 -20 13 0 13 -2 0 -10 -12 -8 -12 -10 3
-16 26 -10 31 1 17 36 -14 34 -40 41 -37 10z"/>
<path d="M1575 3640 c-3 -5 -3 -10 2 -10 4 0 1 -5 -7 -10 -18 -12 -2 -12 25 0
20 9 20 9 0 10 -17 2 -16 3 5 10 23 7 23 8 3 9 -12 1 -25 -3 -28 -9z"/>
<path d="M1575 3600 c-11 -5 -17 -9 -13 -9 3 -1 14 -4 24 -8 11 -4 15 -3 11 4
-4 6 -1 14 5 16 7 3 9 5 3 6 -5 0 -19 -4 -30 -9z"/>
<path d="M1545 3550 c19 -8 18 -9 -4 -9 -13 -1 -22 -4 -18 -7 3 -4 18 -3 32 0
30 8 24 26 -8 25 -21 0 -21 -1 -2 -9z"/>
<path d="M1492 3480 c-28 -26 -28 -28 3 -22 28 5 56 42 32 42 -7 0 -23 -9 -35
-20z"/>
<path d="M850 3470 c0 -5 7 -10 15 -10 8 0 15 5 15 10 0 6 -7 10 -15 10 -8 0
-15 -4 -15 -10z"/>
</g>
</svg>
